<svg width="335" height="335" viewBox="0 0 335 335" fill="none" xmlns="http://www.w3.org/2000/svg">
    <path d="M287.993 169.852c-2.272-18.09-7.953-35.557-14.74-48.079-16.395-30.09-62.069-50.217-96.48-45.01-29.353 4.435-43.457 31.215-69.922 40.507-24.347 8.55-46.27 15.149-57.747 37.708-24.314 47.65 35.122 99.743 86.062 95.683 16.08-1.287 30.444-7.471 46.947-4.57 33.5 5.89 44.622 12.221 74.209.443 29.151-11.612 35.644-45.038 31.671-76.682z" fill="#4F008C"/>
    <path opacity=".8" d="M287.993 169.852c-2.272-18.09-7.953-35.557-14.74-48.079-16.395-30.09-62.069-50.217-96.48-45.01-29.353 4.435-43.457 31.215-69.922 40.507-24.347 8.55-46.27 15.149-57.747 37.708-24.314 47.65 35.122 99.743 86.062 95.683 16.08-1.287 30.444-7.471 46.947-4.57 33.5 5.89 44.622 12.221 74.209.443 29.151-11.612 35.644-45.038 31.671-76.682z" fill="#fff"/>
    <path d="m170.79 260.918-28.576-63.985h69.245l85.391 56.327" fill="#fff"/>
    <path d="m170.79 260.918-28.576-63.985h69.245l85.391 56.327" stroke="#263238" stroke-width=".75" stroke-linecap="round" stroke-linejoin="round"/>
    <path d="m163.701 258.398-21.487-57.197v-4.268l30.398 66.966-8.911-5.501z" fill="#263238" stroke="#263238" stroke-width=".75" stroke-linecap="round" stroke-linejoin="round"/>
    <path d="m181.805 199.579 29.453 34.525-35.751 8.328-20.315-38.592 26.613-4.261z" fill="#fff" stroke="#263238" stroke-width=".75" stroke-linecap="round" stroke-linejoin="round"/>
    <path d="M175.507 242.433v1.018l35.141-7.109.61-2.238-35.751 8.329z" fill="#263238" stroke="#263238" stroke-width=".75" stroke-linecap="round" stroke-linejoin="round"/>
    <path d="m180.692 212.002 1.508 2.224 3.832-1.039-1.594-2.17-3.746.985zM195.198 225.609l-1.822-2.465-4.355 1.172 1.701 2.519 4.476-1.226zM177.563 207.365l1.119 1.661 3.605-.918-1.132-1.541-3.592.798zM184.505 217.636l2.063 3.055 4.215-1.065-2.278-3.089-4 1.099zM195.419 219.069l-3.611.918 1.809 2.452 3.678-.991-1.876-2.379zM186.937 221.227l1.722 2.56 4.328-1.173-1.816-2.466-4.234 1.079zM173.483 208.269l1.113 1.795 3.457-.884-1.132-1.675-3.438.764zM182.555 214.755l1.595 2.352 3.966-1.099-1.695-2.298-3.866 1.045zM179.044 209.555l1.287 1.91 3.712-.978-1.367-1.856-3.632.924zM171.245 213.864l-1.125-2.03-4.107 1.045 1.145 2.064 4.087-1.079zM165.343 218.775l2.82-.757-1.306-2.359-2.774.73 1.26 2.386zM172.264 206.299l.877 1.421 3.411-.757-.918-1.354-3.37.69zM169.812 211.278l-1.086-1.957-4.174.918 1.153 2.084 4.107-1.045zM168.21 207.124l.831 1.5 3.471-.763-.891-1.434-3.411.697zM162.374 213.174l2.721-.697-1.166-2.097-2.714.596 1.159 2.198zM163.373 208.115l.871 1.568 4.174-.918-.837-1.514-4.208.864zM176.485 213.114l1.407 2.271 3.685-.992-1.508-2.224-3.584.945zM185.945 220.851l-2.057-3.041-3.839 1.058 1.863 3.008 4.033-1.025zM169.349 209.181l1.072 1.943 3.551-.905-1.119-1.809-3.504.771zM170.153 221.596l-2.894.797 1.501 2.834 2.981-.757-1.588-2.874zM178.227 215.927l1.487 2.398 3.813-1.045-1.588-2.358-3.712 1.005zM175.533 212.738l-1.226-1.976-3.578.911 1.126 2.037 3.678-.972zM182.253 233.742l-4.093 1.045 1.46 2.633 4.107-1.011-1.474-2.667zM175.916 204.933l3.504-.717-1.883-2.56-3.451.57 1.83 2.707zM167.273 206.695l-1.696-3.062-4.294.71 1.782 3.216 4.208-.864zM172.847 216.751l-1.293-2.338-4.087 1.079 1.306 2.358 4.074-1.099zM183.279 225.24l-1.649-2.66-4.261 1.085 1.528 2.761 4.382-1.186zM181.295 222.038l-1.862-3.002-4.014 1.106 1.642 2.968 4.234-1.072zM188.036 223.954l-1.729-2.566-4.06 1.032 1.648 2.653 4.141-1.119zM177.276 215.552l-1.407-2.278-3.712.985 1.293 2.325 3.826-1.032zM174.931 210.608l1.219 1.963 3.558-.938-1.293-1.916-3.484.891zM179.098 218.5l-1.487-2.405-3.86 1.038 1.367 2.466 3.98-1.099zM190.106 227.009l-1.709-2.519-4.167 1.126 1.588 2.566 4.288-1.173zM187.352 231.813l-1.816-2.928-4.582 1.259 1.608 2.888 4.79-1.219zM173.617 227.854l-1.567-2.834-2.995.763 1.527 2.895 3.035-.824zM168.472 218.567l-2.834.764 1.333 2.513 2.874-.791-1.373-2.486zM181.945 233.193l-1.594-2.887-4.06 1.112 1.561 2.814 4.093-1.039zM174.508 219.76l-1.36-2.459-4.073 1.099 1.38 2.485 4.053-1.125zM176.284 205.476l.911 1.346 3.564-.79-.944-1.28-3.531.724zM160.921 210.42l2.7-.597-.871-1.581-2.693.55.864 1.628zM171.916 205.743l3.35-.683-1.843-2.727-3.283.543 1.776 2.867zM167.902 206.567l3.384-.69-1.796-2.895-3.276.543 1.688 3.042zM166.555 215.11l-1.152-2.077-2.734.697 1.119 2.104 2.767-.724zM180.076 204.082l3.028-.623-1.903-2.405-2.994.489 1.869 2.539zM162.435 207.686l-1.795-3.243-2.654.443 1.776 3.343 2.673-.543zM177.55 234.941l-3.216.818 1.394 2.626 3.283-.81-1.461-2.634zM192.833 231.042l-4.529 1.152 1.655 2.674 4.676-1.159-1.802-2.667zM187.687 232.355l-4.824 1.227 1.481 2.673 4.991-1.233-1.648-2.667zM198.193 229.676l-4.73 1.206 1.802 2.673 4.898-1.213-1.97-2.666zM202.85 228.49l-4.02 1.025 1.976 2.674 4.154-1.032-2.11-2.667zM175.688 231.585l-3.116.851 1.468 2.774 3.202-.818-1.554-2.807zM185.202 228.349l-1.588-2.566-4.409 1.193 1.447 2.62 4.55-1.247zM192.471 230.506l-2.01-2.968-4.308 1.179 1.816 2.935 4.502-1.146zM180.049 229.756l-1.454-2.619-4.067 1.105 1.461 2.627 4.06-1.113zM172.284 231.886l3.102-.851-1.461-2.633-3.048.824 1.407 2.66zM176.451 223.27l-1.634-2.961-4.061 1.118 1.595 2.881 4.1-1.038zM197.804 229.146l-2.218-3.008-4.502 1.232 2.017 2.975 4.703-1.199zM178.294 226.587l-1.534-2.767-4.101 1.046 1.568 2.827 4.067-1.106zM189.134 216.363l2.285 3.095 3.584-.911-2.465-3.122-3.404.938zM184.679 210.319l3.176-.837-1.427-1.802-3.109.79 1.36 1.849zM181.812 206.427l1.112 1.514 3.095-.784-1.119-1.414-3.088.684zM202.434 227.967l-2.399-3.048-3.819 1.045 2.225 3.022 3.993-1.019zM185.067 210.849l1.602 2.164 3.269-.884-1.675-2.124-3.196.844zM194.005 222.969l1.823 2.472 3.799-1.038-1.923-2.432-3.699.998zM181.409 205.89l3.076-.676-.958-1.22-3.049.623.931 1.273zM188.746 215.841l3.384-.938-1.776-2.252-3.296.891 1.688 2.299z" fill="#263238"/>
    <path d="M215.928 203.438v5.481a10.745 10.745 0 0 1-1.829 1.42c-1.012.61-9.34 2.01-9.34 2.01l10.559 11.585s9.681-1.059 12.395-1.829c2.841-.818 2.231-11.176 2.231-11.176l-14.016-7.491z" fill="#fff" stroke="#263238" stroke-width=".75" stroke-linecap="round" stroke-linejoin="round"/>
    <path d="M215.928 203.438v5.481s-.148.147-.389.362l12.348 12.77c2.64-1.186 2.057-11.102 2.057-11.102l-14.016-7.511z" fill="#263238" stroke="#263238" stroke-width=".75" stroke-linecap="round" stroke-linejoin="round"/>
    <path d="M197.242 133.356v58.096l44.28 34.934v-89.78l-44.28-3.25z" fill="#fff" stroke="#263238" stroke-width=".75" stroke-linecap="round" stroke-linejoin="round"/>
    <path d="M200.29 136.405v48.95l37.172 22.955v-68.655l-37.172-3.25z" fill="#4F008C" stroke="#263238" stroke-width=".75" stroke-linecap="round" stroke-linejoin="round"/>
    <path d="M245.991 136.605h-4.469v89.801h4.469v-89.801z" fill="#263238" stroke="#263238" stroke-width=".75" stroke-linecap="round" stroke-linejoin="round"/>
    <path d="m202.729 139.453.201 43.671 31.074 17.668v-54.076l-21.326-3.229-1.42-3.022-8.529-1.012z" fill="#fff" stroke="#263238" stroke-width=".75" stroke-linecap="round" stroke-linejoin="round"/>
    <path d="M204.759 144.733v37.172l27.423 14.626v-46.92l-27.423-4.878z" fill="#4F008C" stroke="#263238" stroke-width=".75" stroke-linecap="round" stroke-linejoin="round"/>
    <path d="M220.797 181.015c3.87-1.299 5.555-6.675 3.765-12.007-1.791-5.332-6.378-8.601-10.248-7.302-3.869 1.299-5.554 6.675-3.764 12.007 1.79 5.332 6.378 8.601 10.247 7.302z" fill="#263238"/>
    <path d="m218.367 171.969 2.606-2.888a1.478 1.478 0 0 0-.047-1.735c-.389-.556-.998-.67-1.34-.275l-2.506 2.781-2.512-4.02c-.362-.583-.972-.764-1.34-.402a1.41 1.41 0 0 0-.054 1.708l2.606 4.188-2.653 2.874a1.477 1.477 0 0 0 .054 1.735c.153.243.392.418.67.489a.666.666 0 0 0 .67-.214l2.512-2.781 2.506 4.02c.154.274.409.476.71.563a.666.666 0 0 0 .67-.161 1.418 1.418 0 0 0 .047-1.708l-2.599-4.174z" fill="#fff"/>
    <path d="m209.63 157.329 15.356 4.509M209.02 153.062l19.906 5.554" stroke="#263238" stroke-width=".75" stroke-linecap="round" stroke-linejoin="round"/>
    <path d="M222.742 248.777s-9.708.898-13.3 3.772c-3.591 2.874-.897 4.315 2.513 5.213 3.41.898 18.693-.543 20.669-2.52 1.977-1.976 0-6.827-9.882-6.465z" fill="#fff" stroke="#263238" stroke-width=".75" stroke-linecap="round" stroke-linejoin="round"/>
    <path d="M232.624 255.269c.382-.381.619-.883.67-1.42-4.348-.214-10.05 1.045-15.229 2.68a54.258 54.258 0 0 1-5.32 1.4c4.516.543 18.03-.837 19.879-2.66z" fill="#263238" stroke="#263238" stroke-width=".75" stroke-linecap="round" stroke-linejoin="round"/>
    <path d="m188.324 142.146 7.095 3.692M184.25 140.029l2.11 1.099M189.885 160.746l2.405.275M180.679 159.681l6.486.75M191.399 177.999l-8.04 2.231" stroke="#263238" stroke-linecap="round" stroke-linejoin="round"/>
    <path d="M181.021 79.73a19.232 19.232 0 0 0-17.766 11.87 19.232 19.232 0 0 0 4.169 20.956 19.222 19.222 0 0 0 20.955 4.169A19.233 19.233 0 0 0 200.25 98.96a19.226 19.226 0 0 0-19.229-19.23zm0 34.68a15.456 15.456 0 0 1-15.146-18.469 15.45 15.45 0 0 1 30.602 3.019 15.44 15.44 0 0 1-15.456 15.47v-.02z" fill="#263238"/>
    <path d="M182.394 98.98a1.37 1.37 0 0 1-.824 1.292 1.377 1.377 0 0 1-1.894-.978 1.38 1.38 0 0 1 .578-1.42 1.374 1.374 0 0 1 2.14 1.106z" fill="#263238"/>
    <path d="m176.417 105.954 4.603-6.974 7.779 6.438" stroke="#263238" stroke-linecap="round" stroke-linejoin="round"/>
    <path d="m78.98 113.719-2.312-6.318 1.233 1.387v-2.158l2.62 4.007-2.312-14.331 3.082 7.859.308-6.935.462 2.312.617-7.86 1.079 12.02 1.54-4.16-.308 5.393 4.161-12.328-2.003 15.41 2.928-2.157-1.695 2.774 2.157-1.541-2.459 7.088-8.944.154" fill="#4F008C"/>
    <path d="M88.869 129.283h-9.635l-2.6-16.696h14.828l-2.593 16.696z" fill="#263238" stroke="#263238" stroke-linecap="round" stroke-linejoin="round"/>
    <path d="M115.247 129.169H66.611v129.384h48.636V129.169z" fill="#fff" stroke="#263238" stroke-linecap="round" stroke-linejoin="round"/>
    <path d="M111.937 133.417H69.439v31.162h42.498v-31.162z" stroke="#263238" stroke-linecap="round" stroke-linejoin="round"/>
    <path d="M99.187 146.167H82.189v5.668h16.998v-5.668z" fill="#263238"/>
    <path d="M111.937 169.777H69.439v31.162h42.498v-31.162z" stroke="#263238" stroke-linecap="round" stroke-linejoin="round"/>
    <path d="M99.187 182.528H82.189v5.669h16.998v-5.669z" fill="#263238"/>
    <path d="M111.937 206.132H69.439v31.162h42.498v-31.162z" stroke="#263238" stroke-linecap="round" stroke-linejoin="round"/>
    <path d="M99.187 218.882H82.189v5.668h16.998v-5.668z" fill="#263238"/>
    <path d="M120.459 251.169s24.375-10.767 37.48-11.577l9.561 21.125H95.287l25.172-9.548z" fill="#263238" stroke="#263238" stroke-width=".75" stroke-linecap="round" stroke-linejoin="round"/>
    <path d="M150.127 123.883s17.159 20.381 20.77 24.12c3.611 3.738 3.745 6.452 2.579 8.127-1.165 1.675-9.929 4.777-18.961 10.579-9.031 5.802-34.706 20.77-34.96 21.293-.255.522-2.714-18.09-2.714-18.09l42.961-17.675-.128-1.293-13.936-25.802 4.389-1.259z" fill="#fff"/>
    <path d="m166.642 153.966-19.912-29.078-.958.281 13.936 25.802.127 1.293-42.96 17.675s.046.321.113.864l2.801 6.425 46.853-23.262z" fill="#4F008C"/>
    <path opacity=".5" d="m166.642 153.966-19.912-29.078-.958.281 13.936 25.802.127 1.293-42.96 17.675s.046.321.113.864l2.801 6.425 46.853-23.262z" fill="#fff"/>
    <path d="M150.127 123.883s17.159 20.381 20.77 24.12c3.611 3.738 3.745 6.452 2.579 8.127-1.165 1.675-9.929 4.777-18.961 10.579-9.031 5.802-34.706 20.77-34.96 21.293-.255.522-2.714-18.09-2.714-18.09l42.961-17.675-.128-1.293-13.936-25.802 4.389-1.259z" stroke="#263238" stroke-width=".75" stroke-linecap="round" stroke-linejoin="round"/>
    <path d="M136.452 114.979s-2.064-1.809-3.095 0c-1.032 1.809-1.159 4.77-.516 5.032.643.261 3.222-.128 3.611-.905.389-.777 0-4.127 0-4.127z" fill="#fff" stroke="#263238" stroke-width=".75" stroke-linecap="round" stroke-linejoin="round"/>
    <path d="M140.063 114.074s-2.19-2.318-3.611-1.42c-1.42.898-1.032 5.809-.516 6.197.516.389 3.612-.67 4.02-1.293.409-.623.107-3.484.107-3.484z" fill="#fff" stroke="#263238" stroke-width=".75" stroke-linecap="round" stroke-linejoin="round"/>
    <path d="M144.968 114.201s-1.937-2.68-3.739-2.68c-1.802 0-3.102 6.453-2.452 6.968.65.516 4.898-.127 5.159-.515a35.185 35.185 0 0 0 1.032-3.773v0z" fill="#fff" stroke="#263238" stroke-width=".75" stroke-linecap="round" stroke-linejoin="round"/>
    <path d="M148.74 118.59c0-.77-.382-7.484-2.68-7.095-2.298.388-4.77 5.809-4.643 6.7.127.891 7.323.395 7.323.395z" fill="#fff" stroke="#263238" stroke-width=".75" stroke-linecap="round" stroke-linejoin="round"/>
    <path d="M159.801 152.265s6.58 2.452 9.032 2.318z" fill="#fff"/>
    <path d="M159.801 152.265s6.58 2.452 9.032 2.318" stroke="#263238" stroke-width=".75" stroke-linecap="round" stroke-linejoin="round"/>
    <path d="M105.699 260.892c7.008-1.179 15.986-5.997 18.659-12.06-2.01-10.512-4.549-25.32-4.549-34.378 0-15.222 4.02-23.865 2.191-34.17-1.829-10.305-5.675-17.025-9.802-19.738 0 0-6.318 1.675-12.77 7.738-6.452 6.064-12.127 16.489-14.338 26.425-2.211 9.936-5.16 40.508-5.16 48.508s-.576 17.929-.576 17.929h23.176a17.712 17.712 0 0 0 3.169-.254z" fill="#fff"/>
    <path d="M124.358 248.824c-3.926 3.35-21.607 9.856-24.187 10.432-2.58.577-1.145-4.877 2.868-10.324s-4.878 2.01-6.311 2.579c-1.434.57.576-10.613.576-16.08 0-5.467 5.165-51.911 5.165-51.911l9.749-17.789 3.35-2.01a14.379 14.379 0 0 0-3.35-3.209s-6.318 1.675-12.77 7.738c-6.452 6.064-12.147 16.522-14.358 26.459-2.211 9.936-5.16 40.508-5.16 48.508 0 7.999-.576 17.929-.576 17.929h23.176c1.058 0 2.114-.094 3.155-.282 7.022-1.152 16-5.969 18.673-12.04z" fill="#4F008C"/>
    <path opacity=".5" d="M124.358 248.824c-3.926 3.35-21.607 9.856-24.187 10.432-2.58.577-1.145-4.877 2.868-10.324s-4.878 2.01-6.311 2.579c-1.434.57.576-10.613.576-16.08 0-5.467 5.165-51.911 5.165-51.911l9.749-17.789 3.35-2.01a14.379 14.379 0 0 0-3.35-3.209s-6.318 1.675-12.77 7.738c-6.452 6.064-12.147 16.522-14.358 26.459-2.211 9.936-5.16 40.508-5.16 48.508 0 7.999-.576 17.929-.576 17.929h23.176c1.058 0 2.114-.094 3.155-.282 7.022-1.152 16-5.969 18.673-12.04z" fill="#fff"/>
    <path d="M105.699 260.892c7.008-1.179 15.986-5.997 18.659-12.06-2.01-10.512-4.549-25.32-4.549-34.378 0-15.222 4.02-23.865 2.191-34.17-1.829-10.305-5.675-17.025-9.802-19.738 0 0-6.318 1.675-12.77 7.738-6.452 6.064-12.127 16.489-14.338 26.425-2.211 9.936-5.16 40.508-5.16 48.508s-.576 17.929-.576 17.929h23.176a17.712 17.712 0 0 0 3.169-.254v0z" stroke="#263238" stroke-width=".75" stroke-linecap="round" stroke-linejoin="round"/>
    <path d="m111.823 162.917 11.082 20.18.596 11.069s3.089-7.893 1.715-13.045c-1.373-5.152-13.393-18.204-13.393-18.204z" fill="#263238" stroke="#263238" stroke-width=".75" stroke-linecap="round" stroke-linejoin="round"/>
    <path d="m123.494 194.173-3.089 46.706 3.437 9.614 2.406-19.235-2.064-38.465-.69 1.38z" fill="#263238" stroke="#263238" stroke-width=".75" stroke-linecap="round" stroke-linejoin="round"/>
    <path d="M120.452 144.003s.389 5.032.778 7.484c.388 2.452-5.675 9.313-5.675 9.313l8.77 13.286 9.936-7.738s14.07-1.032 15.35-2.198c1.28-1.166 1.293-13.929 1.293-13.929l3.35-1.936s-3.095-13.4-3.866-16.389l-.777-2.961s4.516-1.554 3.484-6.03-7.611-6.7-14.191-5.682c-6.579 1.019-8.254 3.484-8.254 3.484s-9.293-.127-14.579 4.262c-5.287 4.388-2.064 11.349-.389 13.802a38.338 38.338 0 0 0 4.77 5.232z" fill="#fff"/>
    <path d="M136.01 162.027c-2.58-3.156 0-15.203 2.01-21.226s-2.868-8.603-2.868-8.603l14.647-2.526-.201-.757a6.524 6.524 0 0 0 2.566-1.816l.79-4.656c-1.34-4.234-7.685-6.271-14.07-5.273-6.579 1.032-8.254 3.484-8.254 3.484s-9.293-.127-14.579 4.261c-5.287 4.389-2.064 11.35-.389 13.802a38.46 38.46 0 0 0 4.77 5.287s.389 5.031.778 7.483c.388 2.453-5.655 9.313-5.655 9.313l8.77 13.287 9.936-7.739s10.72-.791 14.311-1.762l1.039-.436s-11.008 1.032-13.601-2.123z" fill="#4F008C"/>
    <path opacity=".5" d="M136.01 162.027c-2.58-3.156 0-15.203 2.01-21.226s-2.868-8.603-2.868-8.603l14.647-2.526-.201-.757a6.524 6.524 0 0 0 2.566-1.816l.79-4.656c-1.34-4.234-7.685-6.271-14.07-5.273-6.579 1.032-8.254 3.484-8.254 3.484s-9.293-.127-14.579 4.261c-5.287 4.389-2.064 11.35-.389 13.802a38.46 38.46 0 0 0 4.77 5.287s.389 5.031.778 7.483c.388 2.453-5.655 9.313-5.655 9.313l8.77 13.287 9.936-7.739s10.72-.791 14.311-1.762l1.039-.436s-11.008 1.032-13.601-2.123z" fill="#fff"/>
    <path d="M143.547 138.074v-.516c0-.998.168-3.155 1.836-3.745 2.191-.771 4.02 1.293 4.02 1.293l.127 2.064a2.843 2.843 0 0 0-2.68-1.032 6.03 6.03 0 0 0-3.303 1.936zM147.293 142.201c0 1.065-.295 1.936-.67 1.936-.376 0-.67-.871-.67-1.936s.288-1.936.67-1.936c.382 0 .67.864.67 1.936zM143.226 155.715c-.717.744-1.675.985-2.137.543-.463-.442-.255-1.414.462-2.157.717-.744 1.668-.985 2.13-.543.463.442.262 1.414-.455 2.157z" fill="#263238"/>
    <path d="M120.452 144.003s.389 5.032.778 7.484c.388 2.452-5.675 9.313-5.675 9.313l8.77 13.286 9.936-7.738s14.07-1.032 15.35-2.198c1.28-1.166 1.293-13.929 1.293-13.929l3.35-1.936s-3.095-13.4-3.866-16.389l-.777-2.961s4.516-1.554 3.484-6.03-7.611-6.7-14.191-5.682c-6.579 1.019-8.254 3.484-8.254 3.484s-9.293-.127-14.579 4.262c-5.287 4.388-2.064 11.349-.389 13.802a38.338 38.338 0 0 0 4.77 5.232v0z" stroke="#263238" stroke-width=".75" stroke-linecap="round" stroke-linejoin="round"/>
    <path d="M132.841 131.36c2.325-1.548 16.75-2.446 16.75-2.446s4.516-1.554 3.484-6.03c-1.032-4.475-7.611-6.7-14.191-5.681-6.579 1.018-8.254 3.484-8.254 3.484s-9.293-.127-14.579 4.261c-5.287 4.389-2.064 11.35-.389 13.802a38.394 38.394 0 0 0 4.77 5.286s.215 2.761.483 5.193l4.02 1.132 4.388-2.325 4.389-1.032s-3.23-2.452-1.421-4.77c1.809-2.318 5.159-3.095 5.287-4.904.127-1.809-7.062-4.422-4.737-5.97z" fill="#263238" stroke="#263238" stroke-width=".75" stroke-linecap="round" stroke-linejoin="round"/>
    <path d="M146.924 123.862s-1.514-2.773 1.26-2.271c2.773.503 2.773 5.3.502 6.305s-14.626-1.26-21.44.757c-6.814 2.017-11.598 7.564-11.598 7.564M119.434 140.506s5.3-4.536 9.581-5.293c4.281-.757 6.559-.757 1.769 2.01-4.791 2.767-1.514 2.265 1.514 1.26" stroke="#fff" stroke-miterlimit="10" stroke-linecap="round"/>
    <path d="M130.516 150.455s-.771-8.127-4.771-8.381c-4-.255-3.872 5.547-2.68 9.547 1.193 4 4.02 5.286 6.318 3.223" fill="#4F008C"/>
    <g opacity=".5">
        <path d="M130.516 150.455s-.771-8.127-4.771-8.381c-4-.255-3.872 5.547-2.68 9.547 1.193 4 4.02 5.286 6.318 3.223" fill="#fff"/>
        <path d="M130.516 150.455s-.771-8.127-4.771-8.381c-4-.255-3.872 5.547-2.68 9.547 1.193 4 4.02 5.286 6.318 3.223" stroke="#263238" stroke-width=".75" stroke-linecap="round" stroke-linejoin="round"/>
    </g>
    <path d="M130.516 150.455s-.771-8.127-4.771-8.381c-4-.255-3.872 5.547-2.68 9.547 1.193 4 4.02 5.286 6.318 3.223" stroke="#263238" stroke-width=".75" stroke-linecap="round" stroke-linejoin="round"/>
    <path d="m115.91 155.876 12.904 19.611-5.936 7.611a150.2 150.2 0 0 0-8.898-14.968c-4.388-6.191-4.904-7.222-4.904-7.222l6.834-5.032z" fill="#fff"/>
    <path d="m115.91 155.876-6.834 5.032s.382.757 3.196 4.797l7.222-4.382-3.584-5.447z" fill="#4F008C"/>
    <path opacity=".5" d="m115.91 155.876-6.834 5.032s.382.757 3.196 4.797l7.222-4.382-3.584-5.447z" fill="#fff"/>
    <path d="m115.91 155.876 12.904 19.611-5.936 7.611a150.2 150.2 0 0 0-8.898-14.968c-4.388-6.191-4.904-7.222-4.904-7.222l6.834-5.032z" stroke="#263238" stroke-width=".75" stroke-linecap="round" stroke-linejoin="round"/>
    <path d="M149.095 204.645s2.063-4.261 2.452-6.968c.389-2.707.516-4.261 2.064-5.548 1.547-1.286 6.579-6.452 7.37-8.388.79-1.937 1.286-.128 1.675 1.42.388 1.548.254 2.968-1.032 3.873a14.17 14.17 0 0 0-2.452 2.318l1.159.904s16.127-6.063 17.808-6.7c1.682-.636 3.223-.134 3.35 1.16.128 1.293-.382 1.42-1.159 1.809-.777.388-9.286 3.35-10.452 3.865l-1.159.516.905.905s4.643-.127 6.968-.255c2.324-.127 5.802-.516 6.318.255.23.345.318.765.245 1.173a1.605 1.605 0 0 1-.634 1.018 2.492 2.492 0 0 1-2.064.67c-1.159 0-11.095.77-11.095.77l.262 1.421s10.579 1.675 10.961 2.191c.382.515.388.777 0 1.547-.389.771-.67.777-1.675.777s-9.38-1.293-9.38-1.293 4.127 2.325 4.643 2.714c.516.388 2.318.67 1.802 1.548-.516.877-.77 1.159-1.548 1.031-.777-.127-6.318-2.579-6.318-2.579s-5.547.77-7.37.904a25.114 25.114 0 0 1-4.02-.134l-5.159 3.35-2.465-4.274z" fill="#fff" stroke="#263238" stroke-width=".75" stroke-linecap="round" stroke-linejoin="round"/>
    <path d="M112.459 198.836s-3.745-15.611-5.293-19.095c-1.548-3.484-10.318-6.7-14.58.904-4.26 7.605-.388 16.255 1.167 22.445 1.554 6.191 11.35 34.17 12.77 37.675 1.42 3.504 4.02 2.68 5.42 2.324 1.401-.355 40.636-31.999 40.636-31.999l-3.096-6.961-30.444 15.631-6.58-20.924z" fill="#fff"/>
    <path d="M111.36 233.16a93.578 93.578 0 0 1 3.437-8.891c1.434-2.868-6.881 6.6-8.602 1.434-1.722-5.166-12.616-30.974-10.613-39.577a16.316 16.316 0 0 1 6.552-9.876c-3.195-.757-7.108.047-9.547 4.402-4.255 7.611-.389 16.254 1.166 22.445 1.554 6.191 11.35 34.17 12.77 37.674 1.42 3.504 4.02 2.68 5.42 2.325 1.032-.281 22.11-17.118 33.5-26.251L111.36 233.16z" fill="#4F008C"/>
    <path opacity=".5" d="M111.36 233.16a93.578 93.578 0 0 1 3.437-8.891c1.434-2.868-6.881 6.6-8.602 1.434-1.722-5.166-12.616-30.974-10.613-39.577a16.316 16.316 0 0 1 6.552-9.876c-3.195-.757-7.108.047-9.547 4.402-4.255 7.611-.389 16.254 1.166 22.445 1.554 6.191 11.35 34.17 12.77 37.674 1.42 3.504 4.02 2.68 5.42 2.325 1.032-.281 22.11-17.118 33.5-26.251L111.36 233.16z" fill="#fff"/>
    <path d="M112.459 198.836s-3.745-15.611-5.293-19.095c-1.548-3.484-10.318-6.7-14.58.904-4.26 7.605-.388 16.255 1.167 22.445 1.554 6.191 11.35 34.17 12.77 37.675 1.42 3.504 4.02 2.68 5.42 2.324 1.401-.355 40.636-31.999 40.636-31.999l-3.096-6.961-30.444 15.631-6.58-20.924zM144.968 206.708l3.484 7.095" stroke="#263238" stroke-width=".75" stroke-linecap="round" stroke-linejoin="round"/>
    <path d="m63.127 171.111-17.822 12.362s8.784 9.286 7.88 33.647c-.67 18.606 1.788 39.731 5.36 44.026h18.974s-6.56-36.18-6.09-56.91c.368-15.752-4.362-26.686-8.302-33.125z" fill="#fff" stroke="#263238" stroke-width=".75" stroke-linecap="round" stroke-linejoin="round"/>
    <path d="M65.271 171.111 47.45 183.473s8.784 9.286 7.873 33.647c-.67 18.606 1.789 39.731 5.36 44.026h18.98s-6.552-36.18-6.083-56.91c.355-15.752-4.375-26.686-8.308-33.125z" fill="#263238" stroke="#263238" stroke-width=".75" stroke-linecap="round" stroke-linejoin="round"/>
    <path d="M63.127 171.111h2.144L47.45 183.473h-2.137l17.815-12.362z" fill="#fff" stroke="#263238" stroke-width=".75" stroke-linecap="round" stroke-linejoin="round"/>
</svg>
