<svg xmlns="http://www.w3.org/2000/svg" width="24" height="24" viewBox="0 0 24 24">
    <path d="M6.28 1.4H.7A.7.7 0 0 1 0 .7.7.7 0 0 1 .7 0h5.58a.7.7 0 0 1 .7.7.7.7 0 0 1-.7.7z" transform="translate(15.02 6.18)" style="fill:#3b3d4f"/>
    <path data-name="Vector" d="M4.42 1.4H.7A.7.7 0 0 1 0 .7.7.7 0 0 1 .7 0h3.72a.7.7 0 0 1 0 1.4z" transform="translate(2 6.18)" style="fill:#3b3d4f"/>
    <path data-name="Vector" d="M7.9 3.95A3.95 3.95 0 1 1 3.95 0 3.95 3.95 0 0 1 7.9 3.95z" transform="translate(6.19 2.93)" style="fill:#3b3d4f"/>
    <path data-name="Vector" d="M4.42 1.4H.7A.7.7 0 0 1 0 .7.7.7 0 0 1 .7 0h3.72a.7.7 0 0 1 .7.7.7.7 0 0 1-.7.7z" transform="translate(16.88 16.41)" style="fill:#3b3d4f"/>
    <path data-name="Vector" d="M6.28 1.4H.7A.7.7 0 0 1 0 .7.7.7 0 0 1 .7 0h5.58a.7.7 0 1 1 0 1.4z" transform="translate(2 16.41)" style="fill:#3b3d4f"/>
    <path data-name="Vector" d="M7.9 3.95A3.95 3.95 0 1 1 3.95 0 3.95 3.95 0 0 1 7.9 3.95z" transform="translate(9.91 13.17)" style="fill:#3b3d4f"/>
</svg>
