<svg xmlns="http://www.w3.org/2000/svg" width="28" height="25" viewBox="0 0 28 25">
    <g data-name="my shops">
        <path data-name="Polygon 1" d="M4.211 3.578a2 2 0 0 1 3.578 0l2.764 5.528A2 2 0 0 1 8.764 12H3.236a2 2 0 0 1-1.789-2.894z" transform="translate(16 13)" style="fill:#ff375e"/>
        <g data-name="vuesax/outline/house-2">
            <path d="M20.75 1.5h-20A.755.755 0 0 1 0 .75.755.755 0 0 1 .75 0h20a.755.755 0 0 1 .75.75.755.755 0 0 1-.75.75z" transform="translate(1.25 21.25)" style="fill:#4f008c"/>
            <path data-name="Vector" d="M1.5 20.218H0L.05 8.187a2.724 2.724 0 0 1 1.06-2.16l7-5.45a2.762 2.762 0 0 1 3.38 0l7 5.44a2.788 2.788 0 0 1 1.06 2.17v12.03h-1.5V8.2a1.281 1.281 0 0 0-.48-.99l-7-5.44a1.261 1.261 0 0 0-1.54 0l-7 5.45a1.246 1.246 0 0 0-.48.98z" transform="translate(2.2 1.782)" style="fill:#4f008c"/>
            <path data-name="Vector" d="M10.75 12.5h-10a.755.755 0 0 1-.75-.75v-9.5A2.253 2.253 0 0 1 2.25 0h7a2.253 2.253 0 0 1 2.25 2.25v9.5a.755.755 0 0 1-.75.75zM1.5 11H10V2.25a.755.755 0 0 0-.75-.75h-7a.755.755 0 0 0-.75.75z" transform="translate(6.25 10.25)" style="fill:#4f008c"/>
            <path data-name="Vector" d="M.75 3A.755.755 0 0 1 0 2.25V.75A.755.755 0 0 1 .75 0a.755.755 0 0 1 .75.75v1.5A.755.755 0 0 1 .75 3z" transform="translate(9.25 15.5)" style="fill:#4f008c"/>
            <path data-name="Vector" d="M3.75 1.5h-3A.755.755 0 0 1 0 .75.755.755 0 0 1 .75 0h3a.755.755 0 0 1 .75.75.755.755 0 0 1-.75.75z" transform="translate(9.75 6.75)" style="fill:#4f008c"/>
        </g>
    </g>
</svg>
