<svg xmlns="http://www.w3.org/2000/svg" width="30" height="24" viewBox="0 0 30 24">
    <g data-name="offline tasks">
        <path data-name="Polygon 2" d="M8.2 0a4 4 0 0 1 3.455 1.985l1.167 2a4 4 0 0 1 0 4.031l-1.167 2A4 4 0 0 1 8.2 12H5.8a4 4 0 0 1-3.455-1.985l-1.167-2a4 4 0 0 1 0-4.031l1.167-2A4 4 0 0 1 5.8 0z" transform="translate(16 10)" style="fill:#ff375e"/>
        <g data-name="vuesax/outline/forbidden">
            <path d="M13.65 21.5h-5.8a4.132 4.132 0 0 1-2.65-1.1l-4.1-4.1A4.176 4.176 0 0 1 0 13.65v-5.8A4.132 4.132 0 0 1 1.1 5.2l4.1-4.1A4.176 4.176 0 0 1 7.85 0h5.8a4.132 4.132 0 0 1 2.65 1.1l4.1 4.1a4.176 4.176 0 0 1 1.1 2.65v5.8a4.132 4.132 0 0 1-1.1 2.65l-4.1 4.1a4.154 4.154 0 0 1-2.65 1.1zm-5.8-20a2.666 2.666 0 0 0-1.59.66l-4.1 4.1a2.756 2.756 0 0 0-.66 1.59v5.8a2.666 2.666 0 0 0 .66 1.59l4.1 4.1a2.756 2.756 0 0 0 1.59.66h5.8a2.666 2.666 0 0 0 1.59-.66l4.1-4.1a2.756 2.756 0 0 0 .66-1.59v-5.8a2.666 2.666 0 0 0-.66-1.59l-4.1-4.1a2.756 2.756 0 0 0-1.59-.66z" transform="translate(1.25 1.25)" style="fill:#4f008c"/>
            <path data-name="Vector" d="M.747 15.637a.742.742 0 0 1-.53-.22.754.754 0 0 1 0-1.06L14.357.218a.75.75 0 0 1 1.06 1.06L1.277 15.417a.742.742 0 0 1-.53.22z" transform="translate(4.192 4.193)" style="fill:#4f008c"/>
        </g>
    </g>
</svg>
